<?xml version="1.0" encoding="UTF-8" standalone="no"?>
<!DOCTYPE svg PUBLIC "-//W3C//DTD SVG 1.1//EN" "http://www.w3.org/Graphics/SVG/1.1/DTD/svg11.dtd">
<svg width="100%" height="100%" viewBox="0 0 1512 1512" version="1.1" xmlns="http://www.w3.org/2000/svg" xmlns:xlink="http://www.w3.org/1999/xlink" xml:space="preserve" xmlns:serif="http://www.serif.com/" style="fill-rule:evenodd;clip-rule:evenodd;stroke-linejoin:round;stroke-miterlimit:2;">
    <g transform="matrix(0.910448,0,0,0.994969,-360.204,-354.495)">
        <rect id="ArtBoard1" x="395.634" y="356.288" width="1660.51" height="1519.46" style="fill:none;"/>
        <g id="ArtBoard11" serif:id="ArtBoard1">
            <g transform="matrix(1.19311,0,0,1.19311,-297.705,-76.6971)">
                <g transform="matrix(1.09836,0,0,1.00506,-25.4221,-81.3935)">
                    <g>
                        <path d="M718.11,1499.29C748.792,1499.29 773.702,1542.32 773.702,1595.31C773.702,1648.3 748.792,1691.33 718.11,1691.33C687.428,1691.33 662.519,1648.3 662.519,1595.31C662.519,1542.32 687.428,1499.29 718.11,1499.29ZM812.884,459.921C843.566,459.921 868.476,502.945 868.476,555.939C868.476,608.933 843.566,651.957 812.884,651.957C782.203,651.957 757.293,608.933 757.293,555.939C757.293,502.945 782.203,459.921 812.884,459.921Z" style="fill:rgb(96,38,46);"/>
                        <path d="M773.702,1595.31L868.476,555.939L757.293,555.939L662.519,1595.31L773.702,1595.31Z" style="fill:rgb(96,38,46);"/>
                    </g>
                    <g transform="matrix(0.961995,0,0,0.998099,30.8894,1.23946)">
                        <path d="M1646.25,651.957L812.778,651.957L714.37,1693.31L1744.46,1693.31L1744.46,1662.25C1699.22,1611.14 1700.88,1559.06 1726.32,1500.9L1646.25,651.957Z" style="fill:rgb(96,38,46);"/>
                    </g>
                </g>
                <g transform="matrix(1.05662,0,0,1.00315,8.50565,-273.155)">
                    <path d="M1646.25,651.957L812.778,651.957L714.37,1693.31L1744.46,1693.31L1744.46,1667.28L1646.25,651.957Z" style="fill:rgb(175,81,94);"/>
                </g>
                <g transform="matrix(1.09836,0,0,1.00506,-25.4221,-81.3935)">
                    <path d="M1691.6,1499.29L735.601,1499.29L1691.6,1499.29ZM718.11,1499.29L1691.6,1499.29C1671.81,1566.45 1677.49,1620.2 1709.06,1660.33L718.11,1660.33C684.644,1650.97 679.27,1537.04 718.11,1499.29Z" style="fill:white;"/>
                </g>
                <g transform="matrix(1.09836,0,0,1.00506,-25.4221,-81.3935)">
                    <path d="M693.089,1614.76C692.447,1610.73 691.947,1606.54 691.593,1602.26L1682.89,1602.26C1683.7,1606.52 1684.68,1610.68 1685.84,1614.76L693.089,1614.76Z" style="fill:rgb(226,226,226);"/>
                    <path d="M692.748,1560.15C693.33,1555.92 694.055,1551.74 694.929,1547.65L1681.48,1547.65C1681,1551.88 1680.64,1556.05 1680.41,1560.15L692.748,1560.15Z" style="fill:rgb(226,226,226);"/>
                </g>
                <g transform="matrix(1.09836,0,0,1.00506,-40.3334,-81.3935)">
                    <path d="M1691.6,1499.29L1705.17,1499.29C1685.38,1566.45 1691.07,1620.2 1722.63,1660.33L1709.06,1660.33C1677.49,1620.2 1671.81,1566.45 1691.6,1499.29Z" style="fill:rgb(113,113,113);"/>
                </g>
                <g transform="matrix(0.818364,0,0,0.748845,292.258,-916.378)">
                    <path d="M1029.67,2365.66L1038.5,2236.97C1038.5,2167.26 1095.09,2110.66 1164.8,2110.66L1315.91,2110.66C1385.62,2110.66 1442.21,2167.26 1442.21,2236.97L1450.96,2365.66L1523.6,2365.66C1534.12,2365.21 1535.24,2370.46 1536.13,2377.86L1558.44,2735.9C1558,2745.09 1556.82,2748.49 1548.09,2748.93L931.154,2748.93C921.079,2749.83 919.407,2741.55 919.853,2730.14L944.594,2376.72C944.594,2366.92 954.092,2365.66 958.55,2365.66L1029.67,2365.66ZM1377.64,2365.66L1368.88,2244.07C1368.88,2212.35 1343.14,2186.61 1311.42,2186.61L1169.29,2186.61C1137.57,2186.61 1111.83,2212.35 1111.83,2244.07L1103,2365.66L1377.64,2365.66Z" style="fill:rgb(96,38,46);"/>
                </g>
            </g>
        </g>
    </g>
</svg>
